<svg width="54" height="79" viewBox="0 0 54 79" fill="none" xmlns="http://www.w3.org/2000/svg">
<path d="M47.3592 42.4467C44.2665 38.0487 38.9098 35.5008 36.121 34.4227C34.9851 33.9932 34.222 32.8841 34.222 31.6627V29.0192C35.5639 28.0586 36.7314 26.8697 37.4551 25.7206C38.4915 24.0737 39.2962 21.0745 39.6633 17.4849C40.0566 13.122 39.8069 7.13492 36.3839 3.38948C34.3282 1.14033 31.3896 0 27.6497 0C23.9096 0 20.9709 1.14017 18.9153 3.38885C15.4926 7.1332 15.242 13.1209 15.6351 17.4924C16.0014 21.0726 16.8066 24.0718 17.844 25.72C18.5645 26.8669 19.7315 28.056 21.0756 29.0189V31.4839C21.0756 32.7844 20.239 33.9189 18.9934 34.3072C15.8072 35.3036 11.4616 37.233 8.85317 40.7653C6.25589 44.2811 2.72362 56.3746 0.217717 65.9009C-0.300015 67.8688 0.115676 69.9216 1.35757 71.5326C2.59932 73.1432 4.47807 74.0669 6.51232 74.0669H11.7602V78.3508C11.7602 78.697 12.0409 78.9777 12.3872 78.9777C12.7334 78.9777 13.0142 78.697 13.0142 78.3508V74.0669H15.4796V78.373C15.4796 78.7193 15.7603 79 16.1066 79H39.1907C39.537 79 39.8177 78.7193 39.8177 78.373V55.289C39.8177 54.9428 39.537 54.662 39.1907 54.662H35.9633V53.1432C35.9633 51.4525 34.588 50.0772 32.8972 50.0772H32.6616C35.286 46.5268 36.5919 42.0004 36.7303 36.0168C39.4823 37.1781 43.7147 39.4445 46.3332 43.168C50.6382 49.2886 52.6306 78.1029 52.6502 78.3932C52.6728 78.7243 52.9482 78.9779 53.2751 78.9779C53.2894 78.9779 53.3037 78.9774 53.3179 78.9765C53.6634 78.9531 53.9245 78.6542 53.9014 78.3087C53.8206 77.109 51.8644 48.8521 47.3592 42.4467ZM18.9058 25.0526C17.9811 23.5835 17.2248 20.7096 16.8836 17.3723C16.5137 13.2596 16.7265 7.642 19.8409 4.23481C21.649 2.25683 24.2762 1.25397 27.6497 1.25397C31.023 1.25397 33.6501 2.25699 35.4581 4.23543C38.5728 7.64372 38.7851 13.2606 38.415 17.3648C38.0727 20.7115 37.317 23.5854 36.3936 25.0526C35.7198 26.1227 34.5416 27.2895 33.2333 28.1801L33.209 28.1967C33.2044 28.1997 33.1999 28.2027 33.1954 28.2057C31.9392 29.0541 29.9576 30.0655 27.6495 30.0655C25.3356 30.0655 23.3495 29.0507 22.0883 28.1966C22.0802 28.1908 22.0719 28.1851 22.0633 28.1795C22.0607 28.1778 22.0582 28.176 22.0556 28.1742C20.7538 27.2871 19.5763 26.1205 18.9058 25.0526ZM26.368 71.3445C25.4193 72.2916 24.1594 72.8132 22.8202 72.8132H6.51232C4.86994 72.8132 3.35326 72.0674 2.35072 70.7672C1.34801 69.4665 1.01242 67.8091 1.4303 66.2202C4.93311 52.9043 7.92727 44.1289 9.86167 41.5104C12.1403 38.425 16.0143 36.6557 18.5623 35.7702C18.6736 41.8816 19.9807 46.4829 22.6362 50.0772H22.4001C20.7104 50.0772 19.3357 51.4525 19.3357 53.1432V54.662H16.1066C15.7603 54.662 15.4796 54.9428 15.4796 55.289V61.5291H13.0143V50.2042C13.0143 49.8579 12.7336 49.5772 12.3873 49.5772C12.0411 49.5772 11.7603 49.8579 11.7603 50.2042V61.5291H7.49528C7.14903 61.5291 6.86829 61.8098 6.86829 62.1561C6.86829 62.5023 7.14903 62.7831 7.49528 62.7831H22.8203C25.5861 62.7831 27.8362 65.0331 27.8362 67.7989C27.8361 69.1386 27.3146 70.3979 26.368 71.3445ZM32.8974 51.3312C33.8965 51.3312 34.7095 52.1441 34.7095 53.1432V54.662H20.5898V53.1432C20.5898 52.1441 21.4021 51.3312 22.4003 51.3312H32.8974ZM31.0685 50.0772H24.2292C21.2797 46.525 19.8699 41.8225 19.8105 35.3356C21.3339 34.6689 22.3296 33.1767 22.3296 31.484V29.8194C23.7036 30.596 25.5462 31.3194 27.6495 31.3194C29.7535 31.3194 31.597 30.5945 32.9679 29.8195V31.6627C32.9679 33.3322 33.972 34.8526 35.4856 35.5144C35.4036 41.9092 33.9944 46.5548 31.0685 50.0772Z" fill="#B40200"/>
<path d="M42.9121 49.5771C42.5659 49.5771 42.2852 49.8579 42.2852 50.2041V78.351C42.2852 78.6973 42.5659 78.978 42.9121 78.978C43.2584 78.978 43.5391 78.6973 43.5391 78.351V50.2041C43.5391 49.8579 43.2584 49.5771 42.9121 49.5771Z" fill="#B40200"/>
</svg>
