<svg width="52" height="85" viewBox="0 0 52 85" fill="none" xmlns="http://www.w3.org/2000/svg">
<path d="M11.4333 58.769C9.22051 58.769 7.03512 58.62 4.9066 58.3229C4.49482 58.265 4.1252 58.0346 3.89185 57.6905C3.65851 57.3454 3.58105 56.916 3.68008 56.511C4.38991 53.6217 4.40266 50.5686 4.4154 47.6156C4.43011 44.1223 4.4458 40.5094 5.61251 37.1318C5.68114 36.9328 5.83213 36.773 6.02625 36.6926C6.22038 36.6122 6.44 36.619 6.62922 36.7102C10.4559 38.5701 13.8844 39.8623 18.1797 40.127C19.6357 40.2162 21.4563 40.0035 22.2014 39.1348C22.3416 38.9711 22.5466 38.875 22.7613 38.878C22.976 38.878 23.1809 38.9731 23.3201 39.1368C23.6731 39.5525 24.0466 39.98 24.4084 40.3937C26.0134 42.232 27.6723 44.1331 28.7998 46.2851C30.1567 48.8764 30.9655 51.4059 31.2048 53.8041C31.2499 54.2551 31.0969 54.7031 30.7842 55.0306C30.4704 55.36 30.0292 55.5375 29.5723 55.5149C27.9635 55.4365 26.283 55.9669 24.6996 56.5179L24.5398 56.5738C22.676 57.2228 20.7484 57.8944 18.7209 57.7503C18.2003 57.713 17.7571 57.3503 17.6179 56.8463C17.2679 55.5796 16.763 54.3325 16.2394 53.1158C15.8973 54.4512 15.7296 55.9473 15.7708 57.3876C15.7894 58.0611 15.2806 58.6229 14.61 58.6651C13.5462 58.7347 12.4873 58.769 11.4333 58.769ZM6.75374 38.4015C5.91351 41.3153 5.90076 44.387 5.88703 47.6224C5.87429 50.6608 5.86056 53.8031 5.10955 56.862C8.08516 57.2807 11.1735 57.3974 14.2962 57.213C14.2658 55.158 14.6198 53.0109 15.2766 51.2873C15.3423 51.1157 15.4688 50.9755 15.6325 50.8932C16.0188 50.6981 16.5032 50.7784 16.8385 51.0932C17.0493 51.2912 17.1512 51.5255 17.2189 51.6804C17.864 53.1619 18.5307 54.6914 18.9895 56.2944C20.6631 56.3689 22.3867 55.7679 24.0554 55.1865L24.2162 55.1306C25.9359 54.5325 27.7723 53.956 29.6439 54.0472C29.6733 54.0492 29.6988 54.0394 29.7184 54.0188C29.7449 53.9903 29.742 53.9609 29.741 53.9511C29.5214 51.7412 28.7654 49.3921 27.4968 46.9685C26.4506 44.9704 24.8496 43.136 23.3005 41.3624C23.0985 41.131 22.8917 40.8947 22.6868 40.6574C21.2426 41.6575 19.0592 41.6545 18.0895 41.5947C13.8452 41.3339 10.4362 40.1388 6.75374 38.4015Z" fill="#B40200"/>
<path d="M1.8231 73.2157C1.79859 72.8853 1.77408 72.5617 1.74957 72.245C1.49858 68.9449 1.30053 66.3379 1.79859 63.2682C2.16821 60.9857 3.1712 59.0847 4.25359 57.1768L5.53208 57.9033C4.51831 59.6896 3.58004 61.4622 3.24963 63.5045C2.78 66.4026 2.97217 68.9322 3.21532 72.1352C3.23983 72.4539 3.26434 72.7784 3.28885 73.1098L1.8231 73.2157Z" fill="#B40200"/>
<path d="M6.38509 73.7364L5.00366 73.2315C6.09979 70.2304 7.08022 66.2165 7.3871 63.4703C7.39592 63.3879 7.40474 63.3046 7.41357 63.2223C7.47239 62.6605 7.53416 62.08 7.74888 61.5016C7.98712 60.8604 8.37537 60.3251 8.75088 59.8074C9.21364 59.1691 9.61366 58.6181 9.64797 58.0063L11.1167 58.0897C11.0578 59.1319 10.4647 59.9496 9.94113 60.6712C9.60876 61.129 9.296 61.5614 9.12736 62.0144C8.97638 62.4193 8.92736 62.885 8.87637 63.3772C8.86755 63.4634 8.85873 63.5487 8.84892 63.635C8.52538 66.5293 7.53514 70.5882 6.38509 73.7364Z" fill="#B40200"/>
<path d="M5.38497 73.4349C5.55557 73.2907 5.82126 73.3662 5.90166 73.5751C6.4056 74.8722 6.82032 76.2517 6.45266 77.5733C6.3203 78.0498 6.08794 78.5037 6.04284 78.9969C5.98499 79.6234 6.23598 80.2538 6.14284 80.8764C6.02715 81.6509 5.36928 82.2754 4.61729 82.4931C3.8653 82.7107 3.04468 82.5686 2.32994 82.2509C1.75835 81.997 1.21617 81.6087 0.941645 81.046C0.689674 80.5293 0.691634 79.9204 0.815169 79.3596C0.937723 78.7988 1.17401 78.2694 1.37598 77.7321C1.87992 76.3948 2.18876 74.9516 2.22013 73.58C2.22797 73.2427 2.59858 73.0358 2.88584 73.2113C3.23194 73.4231 3.59274 73.6064 3.98197 73.6908C4.4712 73.7966 5.01633 73.7466 5.38497 73.4349Z" fill="#B40200"/>
<path d="M3.85951 83.332C3.26635 83.332 2.64083 83.1937 2.03198 82.9232C1.20253 82.5545 0.597606 82.0172 0.281907 81.3692C-0.0151646 80.7593 -0.0788918 80.0103 0.0975862 79.2024C0.205434 78.7093 0.382892 78.2583 0.553487 77.8229C0.599568 77.7063 0.644668 77.5896 0.688787 77.4729C1.18195 76.166 1.45745 74.814 1.48588 73.563C1.49568 73.1433 1.73001 72.758 2.09865 72.557C2.47121 72.3541 2.90849 72.3639 3.26929 72.5845C3.62028 72.7992 3.88794 72.9188 4.13795 72.9727C4.45365 73.0414 4.75661 73.0021 4.90857 72.8737C5.16741 72.6551 5.51938 72.5747 5.84979 72.659C6.1851 72.7443 6.4606 72.9874 6.58511 73.309C7.13416 74.7228 7.58417 76.2415 7.15965 77.771C7.1067 77.9631 7.042 78.1426 6.98023 78.3161C6.88415 78.5838 6.79394 78.8367 6.77336 79.0651C6.75375 79.2769 6.78904 79.525 6.82532 79.7867C6.87532 80.1456 6.93317 80.5525 6.86846 80.9858C6.71747 81.9996 5.89391 82.8898 4.82033 83.2006C4.51836 83.2889 4.19384 83.332 3.85951 83.332ZM2.93594 74.0816C2.8526 75.3552 2.55455 76.6964 2.0663 77.9916C2.02022 78.1141 1.97217 78.2367 1.92413 78.3592C1.76726 78.7593 1.61922 79.1377 1.53588 79.5171C1.46235 79.8524 1.41529 80.3338 1.60549 80.724C1.8104 81.1446 2.27709 81.4211 2.63102 81.579C3.26733 81.8613 3.90069 81.9359 4.41541 81.7868C4.93897 81.6358 5.35075 81.2162 5.41742 80.7682C5.45075 80.5456 5.41252 80.276 5.37232 79.9907C5.32722 79.672 5.27722 79.3112 5.31251 78.9298C5.35075 78.5171 5.48213 78.1475 5.5988 77.821C5.65468 77.6651 5.70665 77.518 5.74586 77.3768C6.01646 76.4023 5.76057 75.3307 5.38604 74.2904C4.93602 74.4875 4.39286 74.5316 3.82911 74.4101C3.49577 74.3375 3.19576 74.214 2.93594 74.0816Z" fill="#B40200"/>
<path d="M29.0458 74.8233C28.7301 74.7949 28.4762 75.0694 28.5183 75.3831C28.6399 76.2812 28.584 77.1411 28.2909 78.0303C27.9301 79.1245 27.7291 80.5618 28.6752 81.2187C29.1791 81.5687 29.84 81.551 30.4517 81.6099C33.1626 81.8687 35.4716 83.8325 38.1746 84.157C39.055 84.2629 40.1855 84.0178 40.2982 83.0737C40.3345 82.7707 40.2384 82.4677 40.0649 82.2168C39.6727 81.6481 39.0472 81.3912 38.4629 81.0883C35.8882 79.7539 33.5048 77.4754 32.6656 74.7076C32.5773 74.4174 32.2538 74.2782 31.9812 74.4096C31.0704 74.8468 30.2596 74.9312 29.0458 74.8233Z" fill="#B40200"/>
<path d="M38.5618 84.9151C38.3736 84.9151 38.2098 84.9014 38.0873 84.8867C36.649 84.7141 35.345 84.1278 34.0842 83.5602C32.8282 82.9954 31.6419 82.4611 30.382 82.3415C30.2811 82.3317 30.1791 82.3248 30.0771 82.317C29.4967 82.2748 28.8388 82.2268 28.2565 81.8229C27.2123 81.0983 26.977 79.6698 27.5937 77.8001C27.8408 77.0511 27.9035 76.3148 27.7908 75.4814C27.7398 75.1069 27.8604 74.7363 28.1202 74.4637C28.378 74.1941 28.7398 74.0578 29.1124 74.0912C30.2546 74.1931 30.9223 74.1029 31.6635 73.747C31.988 73.5911 32.3625 73.5843 32.6919 73.7284C33.0194 73.8725 33.2665 74.151 33.3704 74.4941C34.0744 76.8158 36.1048 79.0374 38.802 80.4355C38.8775 80.4748 38.954 80.513 39.0304 80.5522C39.5903 80.8336 40.2246 81.1532 40.6707 81.8003C40.957 82.216 41.0845 82.6994 41.0286 83.1621C40.9452 83.8592 40.5099 84.4024 39.802 84.6906C39.3667 84.8671 38.9187 84.9151 38.5618 84.9151ZM29.281 75.5795C29.3702 76.5158 29.2751 77.3952 28.9898 78.26C28.8467 78.6953 28.429 80.1522 29.0947 80.614C29.3467 80.7885 29.7526 80.8179 30.184 80.8503C30.2977 80.8581 30.4105 80.8669 30.5222 80.8777C32.0233 81.0209 33.3773 81.6307 34.6871 82.2199C35.9009 82.766 37.047 83.2817 38.2628 83.4268C38.6226 83.47 38.9902 83.4327 39.2471 83.3278C39.5422 83.2072 39.5599 83.0582 39.5687 82.9866C39.5815 82.8807 39.5412 82.7523 39.4599 82.6337C39.2275 82.2964 38.8295 82.0964 38.3696 81.865C38.2883 81.8238 38.2059 81.7827 38.1255 81.7405C35.1832 80.2159 32.9321 77.7805 32.0488 75.1853C31.1085 75.5824 30.2418 75.6432 29.281 75.5795Z" fill="#B40200"/>
<path d="M32.8429 74.5149L31.3752 74.4217C31.7831 67.9656 31.7703 66.1263 31.2978 63.486C31.2341 63.1272 31.139 62.7781 31.0389 62.4075C30.8674 61.7702 30.6889 61.1124 30.6654 60.381C30.6546 60.0437 30.6625 59.7103 30.6703 59.3888C30.6821 58.8887 30.6929 58.4152 30.637 57.9593C30.5115 56.9396 30.0154 55.9455 29.2742 55.2298L30.2958 54.1719C31.2899 55.1307 31.9292 56.4122 32.0968 57.7809C32.1655 58.3436 32.1527 58.8927 32.14 59.4241C32.1321 59.7398 32.1253 60.0388 32.1351 60.3349C32.1527 60.8947 32.3008 61.4438 32.4576 62.0251C32.5616 62.4095 32.6684 62.8066 32.7439 63.2272C33.239 65.9812 33.2557 67.9862 32.8429 74.5149Z" fill="#B40200"/>
<path d="M28.0438 74.9784C27.6575 72.1597 27.0163 70.0831 26.1535 67.4565C25.5084 65.4917 24.8221 62.9161 25.2515 60.42C25.3162 60.0444 25.1692 59.667 24.8672 59.4346C23.9269 58.714 23.1357 57.7365 22.5808 56.608L23.9005 55.959C24.3564 56.8855 25.0005 57.6836 25.7623 58.2669C26.4996 58.8317 26.8594 59.7523 26.7016 60.669C26.327 62.8455 26.9594 65.1947 27.5516 66.9967C28.4389 69.6968 29.0978 71.8361 29.5017 74.7774L28.0438 74.9784Z" fill="#B40200"/>
<path d="M23.726 24.4162L27.3821 21.6533C28.2654 21.0621 29.3655 20.4131 30.5724 20.4219C31.5607 20.4287 32.6401 20.8631 33.448 20.167C33.7647 19.8934 33.9519 19.5022 34.0157 19.0885C34.149 18.2267 33.8127 17.4237 33.4558 16.6629C33.0029 15.6972 32.496 14.7373 31.7479 13.9765C30.9999 13.2157 29.9753 12.6716 28.9096 12.7137C27.6527 12.7637 26.5399 13.6245 25.8575 14.6805C25.1741 15.7374 24.8467 16.9776 24.53 18.1953C23.6839 18.7473 22.4515 19.5895 21.0847 20.4386C21.02 20.4787 20.9985 20.5631 21.0377 20.6288C21.7985 21.9219 22.6348 23.17 23.5299 24.3868C23.575 24.4505 23.6643 24.4632 23.726 24.4162Z" fill="#B40200"/>
<path d="M23.6435 25.1796C23.6013 25.1796 23.5582 25.1766 23.5151 25.1707C23.2817 25.1364 23.0758 25.0139 22.9366 24.8237C21.9778 23.5217 21.1493 22.2716 20.4022 21.0029C20.163 20.597 20.2953 20.0637 20.6953 19.8156C21.6522 19.2215 22.5572 18.6205 23.2847 18.1371C23.4994 17.994 23.7014 17.8606 23.8886 17.7371C24.1857 16.6057 24.5416 15.3605 25.2387 14.2821C26.1348 12.8957 27.4956 12.0349 28.879 11.98C30.0604 11.932 31.2978 12.4732 32.2713 13.4614C33.1027 14.3066 33.6518 15.3497 34.1204 16.3508C34.5244 17.2116 34.9048 18.141 34.741 19.2009C34.6469 19.8117 34.3577 20.3519 33.9263 20.7235C33.0949 21.4402 32.1056 21.3196 31.3115 21.2216C31.0468 21.1892 30.7958 21.1578 30.5663 21.1569C29.5967 21.149 28.6672 21.6784 27.8074 22.253L24.168 25.0031C24.0151 25.1188 23.8327 25.1796 23.6435 25.1796ZM21.967 20.7529C22.514 21.651 23.1072 22.5461 23.7661 23.4638L26.9378 21.0667C26.9485 21.0578 26.9603 21.05 26.9721 21.0421C27.9809 20.3666 29.2016 19.6784 30.5761 19.6862C30.8909 19.6882 31.1968 19.7254 31.4909 19.7617C32.1958 19.848 32.6439 19.8872 32.9655 19.6097C33.1321 19.4666 33.2459 19.2411 33.2871 18.9754C33.388 18.3244 33.1086 17.6577 32.789 16.9743C32.3752 16.091 31.8988 15.1792 31.2223 14.4919C30.5399 13.7977 29.7075 13.4183 28.9378 13.4487C27.8711 13.4918 26.9652 14.3193 26.473 15.0801C25.8475 16.0478 25.5377 17.2341 25.2387 18.3812C25.1926 18.5587 25.0818 18.7117 24.9289 18.8117C24.6828 18.9724 24.4033 19.1577 24.0974 19.3607C23.4896 19.7666 22.7562 20.2539 21.967 20.7529Z" fill="#B40200"/>
<path d="M14.1963 29.353C13.2796 29.353 12.4159 28.853 11.9776 27.9902C10.0893 24.2734 8.16373 19.8801 9.23436 14.7593L10.6736 15.0603C9.70105 19.7144 11.5129 23.8312 13.2885 27.3245C13.5316 27.8039 14.1012 28.0079 14.613 27.799C15.1797 27.5677 15.7591 27.4343 16.319 27.3059C16.5092 27.2618 16.6984 27.2186 16.8847 27.1716C19.1877 26.5892 21.3123 25.2793 22.8673 23.4832L23.9791 24.446C22.229 26.4676 19.8378 27.9422 17.2445 28.5981C17.0455 28.6481 16.8425 28.6952 16.6474 28.7403C16.1209 28.8608 15.6238 28.9756 15.167 29.1618C14.8493 29.2903 14.5189 29.353 14.1963 29.353Z" fill="#B40200"/>
<path d="M13.9296 22.9606L13.3923 21.5919C14.5483 21.138 15.7601 21.0792 16.9317 21.0223C17.1248 21.0125 17.318 21.0037 17.5111 20.9919C18.6514 20.9252 19.9406 20.7644 20.8505 20.0732L21.7397 21.2449C20.5152 22.1743 18.9583 22.3812 17.5974 22.4606C17.4003 22.4724 17.2023 22.4822 17.0043 22.491C15.9013 22.5449 14.861 22.5949 13.9296 22.9606Z" fill="#B40200"/>
<path d="M18.3483 21.9753L16.8845 21.8293C17.0374 20.288 17.0796 18.3458 16.0315 17.0046L17.1904 16.0986C18.56 17.8536 18.5287 20.1606 18.3483 21.9753Z" fill="#B40200"/>
<path d="M7.00182 37.6151L5.61353 37.1288C6.79299 33.764 7.45282 30.4844 7.69008 26.8059C7.72734 26.2274 7.76067 25.649 7.79499 25.0685C7.97245 22.0037 8.15579 18.8349 8.93622 15.7858C9.2225 14.6671 9.66762 13.222 10.5726 11.965C11.5167 10.6532 12.8481 9.77868 14.2266 9.56298C15.2639 9.40121 16.2522 9.59828 17.2091 9.78946C17.5895 9.86495 17.9493 9.93751 18.3082 9.98653C19.3259 10.1267 20.5995 9.99143 21.1181 9.19336L22.3515 9.99437C21.5926 11.1621 20.0063 11.7042 18.1082 11.4435C17.7052 11.3876 17.3062 11.3082 16.9209 11.2317C16.0522 11.0581 15.2326 10.8944 14.4531 11.016C13.4609 11.1709 12.4824 11.8297 11.7667 12.8239C11.1726 13.6494 10.7392 14.675 10.3618 16.1505C9.61663 19.0614 9.43722 22.1586 9.26368 25.1538C9.23035 25.7372 9.19603 26.3196 9.15877 26.901C8.9117 30.7168 8.22638 34.1209 7.00182 37.6151Z" fill="#B40200"/>
<path d="M23.4946 39.6152H22.024C22.024 38.5476 21.9867 37.7563 21.9465 36.9181C21.9073 36.0975 21.8671 35.2494 21.8671 34.1405C21.8671 33.9885 21.8661 33.8356 21.8661 33.6807C21.8602 32.4963 21.8553 31.2727 22.1397 30.106C22.371 29.156 22.7564 28.252 23.3505 27.2637C23.8446 26.4412 24.4447 25.5431 25.1859 24.5176C25.5124 24.0656 26.0163 23.7744 26.5693 23.7175C27.1154 23.6616 27.6615 23.8411 28.0654 24.2097C30.8861 26.7863 34.2921 28.2863 37.9295 28.5589C40.0502 27.001 41.9081 25.0117 43.316 22.792L44.5583 23.5793C43.0043 26.0304 40.9346 28.2197 38.5747 29.908C38.4374 30.006 38.2717 30.0541 38.1041 30.0443C34.0862 29.809 30.1694 28.1226 27.0752 25.296C26.9448 25.1774 26.7977 25.1725 26.7212 25.1803C26.6408 25.1882 26.4898 25.2254 26.3791 25.3784C25.6633 26.3696 25.0849 27.2343 24.6123 28.0206C24.0966 28.8785 23.7652 29.6521 23.5701 30.4541C23.328 31.4453 23.3338 32.5777 23.3387 33.6728C23.3397 33.8297 23.3397 33.9856 23.3397 34.1395C23.3397 35.2131 23.3789 36.0435 23.4172 36.8465C23.4544 37.6661 23.4946 38.5123 23.4946 39.6152Z" fill="#B40200"/>
<path d="M49.682 19.2721C48.7555 19.928 47.5986 20.3358 46.4799 20.1407C46.4387 20.1339 46.3985 20.126 46.3573 20.1162C45.6367 21.0417 44.6602 22.481 43.9523 23.3811C42.8748 22.3644 41.7405 21.6575 40.6296 20.9986C41.2601 20.1358 42.3572 18.9515 43.0003 17.9906C42.7915 17.9946 42.5807 17.9701 42.3699 17.9053C42.0248 17.8014 41.7218 17.5779 41.563 17.2553C41.2022 16.522 41.7385 15.7739 42.2375 15.1876C42.767 14.5679 43.3445 13.916 44.1317 13.7032C44.7278 13.5424 45.3622 13.661 45.9612 13.814C47.0799 14.0993 48.1692 14.5032 49.2025 15.0189C49.9977 15.415 50.8359 15.9778 51.0036 16.8504C51.1869 17.8063 50.4761 18.7093 49.682 19.2721Z" fill="#B40200"/>
<path d="M43.9525 24.1166C43.7652 24.1166 43.5848 24.045 43.4475 23.9166C42.4181 22.945 41.3053 22.2557 40.2543 21.6322C40.0758 21.5263 39.9503 21.3508 39.9091 21.1478C39.868 20.9449 39.9131 20.7341 40.0356 20.5664C40.318 20.1801 40.6758 19.7487 41.0543 19.2928C41.2886 19.0105 41.5269 18.7222 41.7504 18.4428C41.3808 18.2438 41.0817 17.9438 40.9033 17.582C40.2925 16.3398 41.2631 15.1995 41.6779 14.7132C42.1975 14.1054 42.9073 13.2749 43.9407 12.9955C44.7015 12.7906 45.4486 12.9259 46.1437 13.1034C47.3163 13.4024 48.4556 13.8259 49.5311 14.3632C50.3586 14.775 51.4861 15.4672 51.7263 16.7143C51.9391 17.8242 51.3341 19.0056 50.1076 19.8742C49.0095 20.6517 47.8056 21.0135 46.679 20.9106C46.3957 21.288 46.0829 21.7233 45.778 22.1479C45.3476 22.7459 44.9035 23.3646 44.5309 23.8381C44.4035 24.0009 44.2132 24.1019 44.0074 24.1166C43.9887 24.1156 43.9701 24.1166 43.9525 24.1166ZM41.719 20.7978C42.421 21.2321 43.1397 21.7135 43.8466 22.3047C44.0838 21.9832 44.3368 21.6322 44.5839 21.288C44.9937 20.7174 45.4172 20.1282 45.778 19.6654C45.9545 19.4379 46.2477 19.335 46.5281 19.4017C46.5526 19.4076 46.5771 19.4125 46.6026 19.4164C47.4232 19.5595 48.3889 19.2879 49.2586 18.6732C49.8056 18.285 50.4027 17.6124 50.2831 16.9898C50.1959 16.5349 49.736 16.1064 48.8762 15.678C47.8938 15.1878 46.8526 14.8005 45.781 14.527C45.28 14.3995 44.7574 14.2966 44.325 14.4132C43.776 14.5613 43.3083 15.0682 42.7985 15.6652C42.2749 16.281 42.0975 16.6712 42.2249 16.931C42.2847 17.0516 42.4151 17.1506 42.5838 17.2016C42.7122 17.2408 42.8436 17.2584 42.9887 17.2555C43.2671 17.2506 43.5162 17.3977 43.6475 17.6379C43.7789 17.8781 43.7652 18.1712 43.6132 18.3997C43.223 18.982 42.6975 19.6164 42.1877 20.2301C42.0249 20.4252 41.8671 20.6154 41.719 20.7978Z" fill="#B40200"/>
<path d="M46.9456 20.5575L45.769 19.6751C45.7847 19.6545 45.8004 19.6339 45.8161 19.6143L45.8308 19.5957L46.9897 20.5016L46.9681 20.5291C46.9603 20.5389 46.9534 20.5477 46.9456 20.5575Z" fill="#B40200"/>
<path d="M35.8178 24.3236C35.6442 24.3236 35.4736 24.2618 35.3383 24.1461L35.1393 23.9745C33.7285 22.7598 32.6147 21.8009 30.9568 21.1558L31.4892 19.7852C33.3255 20.4989 34.5648 21.5401 35.9678 22.747C36.2619 22.6265 36.509 22.5019 36.7659 22.3725C37.0512 22.2284 37.3463 22.0794 37.7188 21.9274C38.7973 21.4882 39.5581 21.0274 40.1111 20.4783L41.1474 21.5215C40.4513 22.2127 39.5385 22.7745 38.2738 23.2892C37.9561 23.4186 37.7002 23.5481 37.4286 23.6853C37.0374 23.8824 36.6335 24.0873 36.055 24.2844C35.9776 24.3099 35.8972 24.3236 35.8178 24.3236Z" fill="#B40200"/>
<path d="M21.8983 9.64241C21.214 9.59731 20.6993 8.93552 20.5865 8.25804C20.4738 7.58154 20.6659 6.89425 20.8561 6.2354C21.1718 5.14026 21.4601 4.43337 21.7346 3.32744C22.1464 1.67443 23.2386 1.1146 24.3877 0.880277C25.3759 0.678308 25.6387 0.747918 26.6476 0.747918C27.8604 0.747918 29.6585 1.32735 30.785 2.71173C31.5635 3.66765 32.0125 3.91864 32.791 4.87456C33.0155 5.15104 33.2469 5.44027 33.3253 5.78735C33.4792 6.47365 32.9155 7.19623 32.2233 7.32074C31.4301 7.46389 30.6683 6.96681 29.8673 6.87759C29.0898 6.79131 28.3172 7.0972 27.6564 7.51585C26.9956 7.93449 26.4152 8.46785 25.7711 8.91101C25.4573 9.1267 25.0583 9.32671 24.7112 9.16886C24.3641 9.01101 24.2524 8.58158 24.1935 8.20509C24.1347 7.82861 24.0553 7.40016 23.7298 7.20211C23.4102 7.007 22.9719 7.13838 22.7092 7.40506C22.4464 7.67174 22.3199 8.04038 22.2121 8.39922C22.1033 8.75904 22.0013 9.13062 21.8983 9.64241Z" fill="#B40200"/>
<path d="M21.8983 10.3778C21.8826 10.3778 21.8659 10.3768 21.8493 10.3758C20.7502 10.3043 20.0169 9.31697 19.86 8.3787C19.7168 7.52376 19.9561 6.69627 20.1482 6.03056C20.2806 5.5727 20.4061 5.18543 20.5286 4.80992C20.7012 4.28049 20.863 3.77948 21.0208 3.14907C21.4326 1.49507 22.4856 0.517582 24.2406 0.158744C25.0837 -0.0138127 25.4769 -0.00596916 26.072 0.0048156C26.2377 0.0077569 26.424 0.0116786 26.6475 0.0116786C28.0858 0.0116786 30.0986 0.702884 31.3556 2.24609C31.7193 2.69218 32.0026 2.97161 32.3036 3.2677C32.6193 3.57849 32.9468 3.8991 33.3615 4.40892C33.5998 4.70109 33.9253 5.10111 34.0429 5.62466C34.1557 6.12468 34.0498 6.65313 33.7459 7.111C33.4194 7.60317 32.9115 7.94338 32.3536 8.04339C31.6928 8.16202 31.0987 7.97378 30.5751 7.8071C30.2938 7.71789 30.029 7.63357 29.7859 7.6071C29.2761 7.55023 28.6927 7.72769 28.0505 8.13555C27.7142 8.34928 27.3946 8.59929 27.0573 8.86401C26.7799 9.08167 26.4926 9.30619 26.1877 9.516C25.5308 9.967 24.9318 10.0748 24.4082 9.83758C23.6533 9.49541 23.518 8.64047 23.468 8.31791C23.4533 8.22281 23.4111 7.95319 23.3552 7.84828C23.3209 7.85809 23.2719 7.88162 23.2337 7.92083C23.0885 8.0679 22.9974 8.34242 22.917 8.61106C22.8229 8.92382 22.7209 9.28364 22.6199 9.7866C22.5493 10.1327 22.2464 10.3778 21.8983 10.3778ZM23.3827 6.37567C23.6396 6.37567 23.8915 6.44038 24.1121 6.5747C24.7416 6.95805 24.8582 7.69533 24.92 8.09143C24.9563 8.32183 24.9965 8.43262 25.021 8.48262C25.0739 8.46792 25.1788 8.42576 25.3543 8.30516C25.621 8.12182 25.8779 7.92083 26.1495 7.70808C26.5005 7.43258 26.8632 7.14825 27.2623 6.8953C28.1937 6.3041 29.0976 6.05213 29.9486 6.14723C30.3349 6.19037 30.683 6.30018 31.0203 6.40704C31.434 6.53842 31.7909 6.65215 32.0938 6.59725C32.2546 6.56784 32.4184 6.45411 32.5213 6.2992C32.5997 6.18056 32.6321 6.05213 32.6086 5.9482C32.5664 5.7629 32.3831 5.5374 32.2213 5.33837C31.8575 4.89228 31.5742 4.61285 31.2732 4.31676C30.9575 4.00596 30.63 3.68536 30.2153 3.17554C29.2692 2.01274 27.7025 1.48331 26.6475 1.48331C26.4132 1.48331 26.2181 1.47939 26.0446 1.47645C25.4945 1.46566 25.219 1.46076 24.5357 1.59998C23.3288 1.84607 22.7238 2.39805 22.4483 3.50398C22.2787 4.1844 22.1081 4.70893 21.9277 5.26386C21.8091 5.6276 21.6875 6.00409 21.562 6.43842C21.3953 7.01491 21.2238 7.61102 21.311 8.13555C21.3306 8.25418 21.3708 8.36889 21.4238 8.47184C21.4522 8.37183 21.4797 8.27673 21.5071 8.18653C21.6355 7.76102 21.8042 7.27473 22.1846 6.88844C22.516 6.55411 22.9562 6.37567 23.3827 6.37567Z" fill="#B40200"/>
<path d="M29.7841 13.0611L28.6841 12.0846C29.2018 11.5012 29.4096 10.6561 29.6282 9.76093C29.8881 8.70206 30.1557 7.60691 30.9656 6.74609L32.0362 7.75398C31.492 8.33243 31.2803 9.1962 31.0558 10.1109C30.8048 11.1404 30.544 12.2051 29.7841 13.0611Z" fill="#B40200"/>
<path d="M25.4574 15.5076C24.5643 15.1204 23.7603 14.539 23.1946 13.8693C21.9946 12.4497 21.4063 11.4016 21.0239 10.0035L22.4426 9.61621C22.7201 10.6329 23.1162 11.4996 24.3172 12.9213C24.7398 13.4203 25.3516 13.8605 26.0408 14.1595L25.4574 15.5076Z" fill="#B40200"/>
<path d="M17.7531 17.4076L16.355 16.9507C16.8344 15.483 16.7883 14.1398 16.7295 12.4378C16.7089 11.8318 16.6873 11.2063 16.6873 10.5181H18.158C18.158 11.1808 18.1796 11.7936 18.1992 12.3868C18.26 14.1614 18.3129 15.6928 17.7531 17.4076Z" fill="#B40200"/>
</svg>
