<svg width="70" height="79" viewBox="0 0 70 79" fill="none" xmlns="http://www.w3.org/2000/svg">
<path d="M68.5882 68.1836C68.0791 67.893 67.2777 68.0212 66.1356 68.5689C63.9165 69.6346 61.7659 69.7259 60.6238 69.3441C59.3449 68.9183 57.1942 67.6595 56.6412 66.3165C56.2207 65.2938 55.8327 63.4223 55.457 61.6132C55.2973 60.8451 55.141 60.0884 54.9848 59.409C54.7328 58.3161 54.1965 56.9037 53.7225 55.6581C53.2458 54.4019 52.706 52.9799 52.7446 52.555L52.7762 52.2364C52.8622 51.4226 52.8762 51.0109 52.3083 49.7943C51.9194 48.9612 51.3102 48.3389 50.8213 47.8385C50.4974 47.5067 50.2174 47.2214 50.0988 46.9791C49.9426 46.6596 49.6459 45.9486 49.3027 45.1252C48.8831 44.121 48.3783 42.9113 47.8973 41.8553C46.9756 39.8285 44.2324 36.7333 43.4143 35.8335C42.5944 34.9338 42.6278 34.5142 43.021 33.8585C43.3011 33.3941 43.5925 32.7419 43.9348 31.9431C45.4008 33.9656 45.6439 33.9726 45.8415 33.9726C46.405 33.9726 48.1879 32.432 48.3362 32.2898C48.8137 31.8325 51.8387 28.344 52.2354 27.2547C52.5436 26.4076 54.6231 25.1936 55.407 24.7362C56.4226 24.1437 56.9379 23.1904 56.9379 21.9044C56.9379 20.7387 55.9398 19.472 55.5097 18.9822C55.4085 18.865 55.2831 18.7711 55.1422 18.707C55.0013 18.6429 54.8481 18.6101 54.6933 18.6108H54.6784C53.6865 18.6108 52.5479 19.795 52.3285 20.0338C52.0002 20.3902 51.7202 21.0459 51.3647 21.8754C50.9767 22.7831 50.493 23.9111 49.8381 24.8424C48.7944 26.3295 47.7797 27.4627 47.2916 27.8217C47.1441 26.5963 46.5419 23.4827 46.4401 22.956C46.8641 20.6483 46.549 18.416 45.5843 16.9702C45.0707 16.1995 44.3202 15.5403 43.7163 15.0101C43.3871 14.7204 42.9359 14.3254 42.8823 14.1832C42.7665 13.8382 43.0009 12.5961 43.3055 11.9298C43.3608 11.8087 43.3959 11.7876 43.7408 11.7665C44.077 11.7464 44.5862 11.7156 45.0049 11.2363C45.5588 10.6043 45.5518 8.97948 45.5 8.09026C45.5652 8.07827 45.6288 8.05883 45.6896 8.03232C45.8845 7.9463 46.1382 7.74264 46.2461 7.25809C46.3839 6.63748 46.0082 6.19769 45.6466 5.77108C45.3578 5.43136 45.0593 5.08024 44.9162 4.58076C44.5739 3.38518 44.0428 2.32566 43.4196 1.59883C42.7674 0.838643 41.24 -0.2516 39.9197 0.0521229C38.7312 0.326878 36.2575 0.897457 35.133 2.47313C34.0472 3.9935 34.3974 6.03969 34.7547 7.44682C34.9864 8.35975 35.2612 8.97685 35.7334 9.50617C35.7263 9.52703 35.721 9.54847 35.7176 9.57025C35.7132 9.59571 35.6825 9.78531 35.6448 10.0882C34.5159 10.0504 31.1539 10.0566 29.9118 11.3829C29.4386 11.8877 28.2466 12.0553 26.9843 12.2335C25.8773 12.3889 24.7327 12.5504 23.7838 12.963C22.7866 13.3966 20.449 14.5185 20.2725 15.5719C20.1637 16.225 21.2583 22.1353 21.8991 23.4178C22.5022 24.623 23.0517 25.8958 22.5908 27.0475C22.022 28.4696 21.9167 30.1795 22.3512 30.9406C22.7752 31.6824 23.2623 31.9448 24.2139 31.9448L24.5492 31.9404C24.6405 31.9387 24.6967 31.9334 24.7248 31.936C24.7652 31.9554 24.8073 31.9913 24.8802 32.0458L25.1189 32.2213C25.3191 32.3644 25.5025 32.4092 25.6544 32.4092C25.7666 32.4092 25.8775 32.3847 25.9792 32.3372C26.3601 32.1599 26.8219 31.6508 27.0132 29.2666C27.1633 27.3863 27.0677 27.0721 26.6779 26.1671C26.613 26.0152 26.5383 25.8432 26.4558 25.636C25.851 24.1235 25.2699 21.828 25.4235 20.363C25.5526 19.1358 25.5438 17.8805 25.528 17.2564C26.6342 17.128 27.7313 16.9304 28.8128 16.6647C29.7696 16.4347 30.7729 16.3233 31.6577 16.225L31.9624 16.189C32.2749 17.0185 33.1439 19.414 33.4239 21.0924C33.5547 21.8789 33.7785 22.82 34.0156 23.8172C34.4141 25.4911 34.8644 27.389 34.9188 28.8066C34.9811 30.4227 34.4343 31.3672 33.9058 32.281C33.725 32.5927 33.5512 32.8937 33.4081 33.2062C32.8893 34.3325 32.1265 38.1808 33.2167 40.0067C33.2475 40.0944 33.4968 40.8757 32.8841 41.6929C32.6918 41.9493 32.4153 42.2732 32.1028 42.6401C31.1074 43.8085 29.745 45.4078 29.4562 46.707C29.0998 48.3099 27.4504 51.1128 26.9518 51.3621C26.6893 51.449 25.3972 51.2497 24.4527 51.1049C22.2037 50.759 20.5543 50.5448 19.7915 50.9258C19.4044 51.1198 19.005 51.3638 18.581 51.6219C17.6329 52.2012 16.6515 52.8017 15.693 52.9149C15.1812 52.9737 14.665 53.1001 14.1656 53.2204C13.2992 53.4302 12.4038 53.6452 12.0255 53.3529C11.6717 53.0773 11.0037 52.3057 10.4147 51.6245C9.43767 50.4957 9.04089 50.0576 8.74683 49.94C8.47119 49.8311 8.18327 49.9856 7.96382 50.1357C7.29668 50.5887 4.99681 52.8684 4.99681 53.4179C4.99681 53.8129 4.88094 54.5985 4.78965 54.7188C4.74663 54.7372 4.60179 54.7495 4.49646 54.7601C3.99523 54.8075 3.15691 54.8873 2.73995 55.8038C2.44237 56.4569 1.51628 58.1177 0.904446 59.2167C0.612134 59.7417 0.372491 60.17 0.266275 60.3719C0.15216 60.5879 -0.194577 61.248 0.146015 61.6904C0.331234 61.9309 0.634957 61.9862 0.878112 61.9634C0.929025 61.9731 0.988716 61.981 1.05982 61.981C1.41182 61.981 2.00873 61.8054 2.8093 60.9381C3.0428 60.6853 3.22538 60.4755 3.379 60.2982C3.91008 59.6864 4.0198 59.5591 4.72205 59.3835C5.17413 59.2703 5.54105 59.2255 5.92992 59.1781C6.42413 59.1175 6.93678 59.0534 7.64781 58.8507C8.07531 58.729 8.49171 58.5713 8.89254 58.3793C9.27088 58.2064 9.56934 58.0694 10.1557 57.979C10.5218 57.9237 10.9826 57.8149 11.4935 57.6955C12.56 57.4453 13.8917 57.1293 14.9231 57.1899C15.6052 57.2276 16.3768 57.3329 17.2704 57.4558C18.4405 57.6156 19.7651 57.7964 21.3636 57.8965C22.5033 57.9768 23.6481 57.9427 24.781 57.7947C25.4025 57.7218 25.937 57.6612 26.6691 57.6972C27.1774 57.7236 27.64 57.7657 28.0613 57.8043C29.1375 57.9 29.9881 57.979 30.65 57.6849C31.1539 57.4611 31.6016 56.8457 32.1678 56.068C32.6778 55.3675 33.2562 54.574 33.9875 53.9033C35.5614 52.4602 37.3433 50.055 38.1571 48.7909C38.6925 47.9588 39.1911 46.8334 39.4799 46.1373C39.6151 46.298 39.7407 46.4542 39.853 46.6069C40.6545 47.691 42.1854 48.9288 43.5363 50.0199C44.7029 50.9626 45.909 51.9379 46.1706 52.4584C46.3813 52.8807 46.5613 54.1798 46.7535 55.5554C47.0809 57.9132 47.4891 60.8468 48.3915 62.3707C48.6838 62.8649 49.0604 63.4627 49.4835 64.1325C51.1136 66.7185 53.3485 70.2614 54.1728 73.2143C54.5011 74.3888 54.717 75.3307 54.8908 76.0874C55.2946 77.8457 55.4974 78.7288 56.4068 78.9763C56.4876 78.9903 56.5745 79 56.6675 79C58.1809 79 61.7553 76.4614 61.7931 76.435C62.2241 76.1269 62.2522 75.7187 62.2688 75.4729C62.2715 75.4361 62.275 75.3878 62.2601 75.3799C62.3169 75.3682 62.375 75.3632 62.433 75.365C63.4925 75.365 65.2745 74.0649 66.5842 72.9729C67.7078 72.0363 68.9437 69.1422 68.9955 69.0201C69.0222 68.9567 69.0331 68.8877 69.0271 68.8191C69.0088 68.6862 68.9596 68.5595 68.8834 68.4491C68.8071 68.3387 68.706 68.2478 68.5882 68.1836ZM46.9422 28.7461C47.7551 28.9655 49.3378 27.0054 50.522 25.32C51.2268 24.3175 51.7289 23.1439 52.1327 22.2011C52.4312 21.505 52.7121 20.8475 52.9438 20.5956C53.4714 20.0215 54.2351 19.443 54.6784 19.443C54.775 19.4413 54.8285 19.4685 54.882 19.529C55.6457 20.4025 56.1031 21.2891 56.1031 21.9018C56.1031 22.8832 55.7379 23.574 54.9865 24.0129C53.3634 24.9601 51.8123 25.9731 51.4516 26.9667C51.1443 27.8095 48.366 31.1012 47.7595 31.685C47.2609 32.1634 46.2365 32.9131 45.9152 33.0983C45.6229 32.806 44.9233 31.8913 44.3184 31.0442C44.5493 30.5017 44.796 29.9259 45.0734 29.3131C45.6554 28.0333 45.8652 26.7578 46.0556 25.4227C46.2505 26.4989 46.4436 27.6348 46.484 28.1158C46.5226 28.5837 46.8176 28.7127 46.9422 28.7461ZM44.1166 4.80724C44.3088 5.4814 44.6994 5.94049 45.0128 6.30917C45.3455 6.6998 45.4754 6.87887 45.4333 7.07287C45.399 7.22649 45.3569 7.26511 45.3569 7.26511C45.3214 7.26632 45.2861 7.25879 45.2542 7.24317C45.1876 7.20566 45.112 7.1871 45.0356 7.18949C44.9592 7.19189 44.8849 7.21514 44.8208 7.25674C44.7567 7.29834 44.7052 7.3567 44.6719 7.42548C44.6386 7.49427 44.6247 7.57086 44.6318 7.64696C44.7301 8.6424 44.7196 10.2962 44.3799 10.6842C44.1991 10.8905 44.0095 10.9115 43.6926 10.9309C43.3458 10.9519 42.8227 10.9835 42.5497 11.5787C42.2925 12.1379 41.9396 13.4282 42.0423 14.1998C41.7912 14.493 41.0328 15.2242 39.81 15.0452C38.7759 14.8977 38.5161 12.654 38.4889 11.3557L38.6004 11.4145C38.6641 11.448 38.7354 11.4644 38.8073 11.4624C38.8792 11.4603 38.9494 11.4398 39.0111 11.4027C39.0728 11.3657 39.124 11.3134 39.1597 11.2509C39.1953 11.1884 39.2143 11.1178 39.2148 11.0459C39.2149 10.97 39.1942 10.8956 39.155 10.8306C39.1159 10.7657 39.0598 10.7126 38.9928 10.6772C38.5999 10.4708 38.2113 10.2566 37.827 10.0346C38.2071 9.56849 38.7961 8.6503 38.5723 7.60395C38.2519 6.10289 37.7261 5.71138 38.7979 4.51493C39.4957 3.73455 40.3086 6.01423 40.6922 6.10289C41.0767 6.19155 41.4296 4.95559 41.4296 3.7205C41.4296 2.76895 42.0054 2.13605 42.5927 1.93328C42.6673 2.00526 42.7349 2.07548 42.7893 2.13868C43.3353 2.77685 43.8058 3.72401 44.1166 4.80724ZM33.2782 17.3775C33.1302 16.9407 32.9757 16.5061 32.8147 16.074C33.4625 15.9783 33.9936 15.8571 34.3333 15.6307C34.4235 15.5684 34.4855 15.4731 34.5061 15.3655C34.5267 15.2578 34.5042 15.1464 34.4434 15.0552C34.3826 14.964 34.2884 14.9003 34.1811 14.8779C34.0738 14.8555 33.962 14.8762 33.8698 14.9354C33.5134 15.1733 32.568 15.2787 31.5665 15.3902C30.657 15.492 29.6274 15.6061 28.6196 15.8475C26.4804 16.361 25.0856 16.4541 25.0715 16.4549C24.962 16.4622 24.8597 16.5121 24.7866 16.5941C24.7136 16.676 24.6756 16.7833 24.6809 16.893C24.6809 16.9105 24.7652 18.6468 24.5949 20.2708C24.4 22.1177 25.1865 24.7037 25.6816 25.9415C25.7676 26.1565 25.8449 26.3356 25.9125 26.4927C26.2434 27.2617 26.3224 27.4443 26.1828 29.1955C26.0117 31.3356 25.6324 31.5709 25.6061 31.5375L25.3814 31.3725C25.0461 31.1223 24.9469 31.089 24.5308 31.1021L24.2156 31.1065C23.5222 31.1065 23.3326 30.9678 23.078 30.5228C22.8375 30.1023 22.8313 28.6943 23.3677 27.3547C23.9567 25.8818 23.3045 24.3553 22.647 23.0412C22.0597 21.8658 21.0459 16.275 21.0968 15.7062C21.1354 15.4709 21.9263 14.6782 24.1165 13.7258C24.9618 13.3589 26.0494 13.2053 27.1001 13.0578C28.5125 12.8585 29.8468 12.6716 30.521 11.9518C31.4076 11.0055 34.1806 10.8817 35.5588 10.9203C35.4824 11.8192 35.428 13.0648 35.5377 14.3499C35.7282 16.5471 33.9524 17.2072 33.2782 17.3775ZM34.8293 23.6205C34.5958 22.6383 34.3746 21.7095 34.2491 20.952C34.1068 20.097 33.8268 19.0884 33.5398 18.1772C34.7889 17.8568 36.584 16.7551 36.3707 14.2762C36.2347 12.6803 36.369 11.1038 36.4647 10.2839L37.6523 10.9133C37.633 11.8131 37.6708 15.5841 39.6915 15.8729C39.8627 15.8975 40.0277 15.9089 40.1848 15.9089C41.2751 15.9089 42.0335 15.3761 42.4522 14.9767C42.6348 15.1681 42.8753 15.3796 43.1659 15.6351C43.7329 16.1319 44.437 16.7516 44.8899 17.4311C45.7361 18.6978 46.0091 20.7869 45.6062 22.8832C45.4811 23.5627 45.3734 24.2452 45.2832 24.9302C45.0769 26.4049 44.8987 27.6778 44.3132 28.9682C43.9779 29.7055 43.6803 30.4051 43.4125 31.038C43.0746 31.8316 42.7752 32.5312 42.5093 33.0509C42.2451 32.2643 41.5674 30.8721 39.9285 30.0224C38.0675 29.0586 36.3207 29.8662 35.6404 30.2682C35.7282 29.8258 35.7773 29.336 35.7554 28.7707C35.6974 27.2722 35.2357 25.3323 34.8293 23.6205ZM33.4257 53.2809C32.6339 54.0069 32.0027 54.8724 31.4954 55.5685C31.0415 56.1927 30.6132 56.7817 30.3129 56.9142C29.8495 57.1205 29.0954 57.052 28.1386 56.9651C27.6639 56.9189 27.1883 56.8826 26.7122 56.8563C25.9142 56.8168 25.3173 56.8844 24.687 56.9564C23.8873 57.0485 22.9797 57.153 21.4172 57.0547C19.8485 56.9572 18.5397 56.779 17.3854 56.6202C16.4733 56.4955 15.6859 56.3875 14.9714 56.3489C13.8162 56.284 12.4231 56.6123 11.3039 56.8756C10.8167 56.9897 10.3787 57.0933 10.0311 57.1477C9.70716 57.1978 9.45698 57.2618 9.23665 57.3347C9.1278 56.8194 8.98823 55.9653 9.09356 55.335C9.1673 54.8926 10.4735 54.3651 11.7015 54.1184C12.3906 54.4967 13.3492 54.2711 14.3631 54.0271C14.8389 53.9121 15.3304 53.7927 15.7913 53.7383C16.9316 53.6049 18.0394 52.9272 19.0172 52.3303C19.4245 52.0819 19.8099 51.8457 20.1654 51.6684C20.7509 51.3761 22.8173 51.6939 24.3263 51.9265C26.0591 52.1933 26.9097 52.3118 27.3143 52.1099C28.1623 51.686 29.7485 48.7909 30.2076 47.131C30.8668 47.1626 32.2116 47.3504 33.6592 48.2932C34.9943 49.164 35.5245 50.1428 35.7352 50.7177C35.0101 51.6368 34.192 52.5796 33.4257 53.2809ZM50.1928 63.6804C49.8249 63.1044 49.4646 62.5235 49.1122 61.9379C48.2949 60.5607 47.8999 57.7174 47.583 55.4342C47.3645 53.8638 47.1933 52.6235 46.9203 52.0792C46.5779 51.3954 45.4131 50.4535 44.0648 49.3641C43.2747 48.7251 42.4232 48.036 41.7078 47.3706C42.2117 46.9695 43.258 46.1873 44.516 45.5588C45.6359 45.005 46.7677 44.4752 47.9105 43.97C48.1273 44.4826 48.3388 44.9865 48.5311 45.4473C48.8945 46.3173 49.1807 47.0037 49.3483 47.3461C49.5265 47.7086 49.8487 48.0395 50.2235 48.4231C50.6922 48.9015 51.2233 49.4432 51.5516 50.1489C52.0458 51.2067 52.0186 51.463 51.9466 52.1486L51.9133 52.4813C51.8597 53.0668 52.2688 54.1833 52.9421 55.9548C53.4056 57.1767 53.9323 58.561 54.171 59.5968C54.3264 60.2719 54.4818 61.0215 54.6389 61.7826C55.0225 63.6304 55.4184 65.5405 55.8687 66.6351C56.2637 67.5946 57.2723 68.482 58.331 69.1465C58.4451 70.005 58.611 71.6755 58.3319 72.6868C58.2327 73.0467 58.0773 73.3223 57.8429 73.4478C57.4646 73.6497 56.9827 73.6822 56.5051 73.6322C55.9609 73.576 55.4289 73.4162 55.0602 73.2846L54.9786 72.9826C54.1227 69.9111 51.851 66.3103 50.1928 63.6804Z" fill="#B40200"/>
</svg>
