<svg width="56" height="79" viewBox="0 0 56 79" fill="none" xmlns="http://www.w3.org/2000/svg">
<path d="M55.4822 51.4362C56.0061 41.4909 51.4255 47.2985 51.3342 34.578C51.2768 26.5933 48.3459 21.9889 42.8593 21.2386C42.768 21.2319 42.7038 21.2217 42.6565 21.2048C42.2068 21.1237 41.808 19.6464 41.7572 19.3286C42.7139 18.0136 43.4137 16.4958 43.7179 14.8967C43.9207 14.1936 44.0695 13.477 44.1506 12.6994C44.7794 7.06747 42.1595 0.918555 35.9359 0.0695876C32.596 -0.380019 29.584 1.3677 27.8869 4.77188C27.8464 4.83611 27.8058 4.91048 27.7652 5.00175C26.3285 8.11186 28.2453 18.2027 29.8071 20.792C28.2791 22.5972 27.0148 24.612 26.1156 26.6605C25.4226 26.4307 24.7127 26.4171 24.1954 27.198C23.1272 26.7248 22.3429 27.3874 22.1131 28.53C21.9407 28.4894 21.7953 28.4827 21.6635 28.4962C21.6804 28.1277 21.6702 27.5902 21.6702 26.6741C21.4573 25.4808 22.299 25.687 20.2572 24.4937C19.0977 22.942 16.1195 20.8191 14.9836 22.5431C13.9052 22.0699 13.1311 22.7392 12.9012 23.8818C11.8972 23.6046 11.3597 24.585 11.1873 25.6295C10.2069 25.4165 9.4091 26.5288 9.41585 27.3772C9.02371 30.3318 10.1765 31.6806 12.1575 32.759C14.5238 35.2166 17.2857 48.4922 25.3351 44.9224C25.7914 45.7303 26.2985 46.4977 26.8462 47.2008C25.5954 48.1474 24.6184 48.9316 24.5271 50.1824C21.5049 51.9301 19.5308 53.9787 17.8574 55.2025C13.4729 58.3869 12.6311 61.1387 6.99218 66.7877C6.88739 66.2401 6.30594 60.1755 3.30069 60.1755C1.23521 60.1755 0.640241 63.5797 0.491477 65.6384C-0.130536 74.5227 -0.218426 76.456 0.555709 76.8653C3.51031 78.3596 4.16274 79.5022 5.18366 78.7753C8.554 76.7166 7.57704 76.7842 7.72243 76.6524C10.8156 72.7986 13.9527 69.9015 17.0291 68.0456C21.9274 65.588 23.7901 59.8073 29.3412 58.6308C29.8314 58.8675 30.4028 59.3238 31.2276 58.8269C31.5859 58.6071 32.8198 57.8465 34.1111 56.7445C34.9833 57.7891 35.514 57.7993 38.7322 59.7566C39.4827 60.1961 40.0472 60.1825 40.4799 60.2299C40.578 60.4597 40.6929 60.6626 40.8214 60.8519C39.5401 62.1264 35.923 65.7739 34.8852 67.6196C31.7108 73.309 37.1873 73.2854 39.5536 71.9129C48.444 66.7677 49.563 67.2106 49.5534 64.5907C49.5467 61.7579 49.0734 60.6625 47.8058 59.1684C52.5756 59.1616 56.2097 49.8722 55.4829 51.4372L55.4822 51.4362ZM42.7779 21.8496C49.2685 22.7319 50.6816 29.263 50.7221 34.5876C50.8134 47.1291 55.1472 42.1329 54.9038 50.6885C51.5064 47.0545 48.9203 43.4306 41.8179 46.997C40.7734 47.5109 39.5158 47.2844 38.7654 46.4899C39.9317 45.3236 41.1588 43.887 42.4299 42.1629C43.1567 42.0987 43.6299 41.7133 43.9004 41.3042C45.1511 39.4585 48.4235 33.2384 48.7007 29.5061C48.7345 29.1072 48.1227 29.0497 48.0956 29.4588C47.8421 32.7987 44.8537 38.8061 43.3933 40.9627C41.5476 43.6806 34.6821 36.4734 34.9116 34.4248C35.7838 30.7434 38.3732 26.5448 41.507 23.7292C41.8011 23.4587 41.392 23.0024 41.0912 23.2728C39.7762 24.4661 38.3158 26.1226 37.0514 28.09L34.1611 26.4167C34.1848 25.6425 34.2659 25.5986 34.1848 25.3721C33.982 24.7602 33.7453 24.0571 33.3769 23.479C36.274 24.074 39.3367 22.279 41.2704 19.9599C41.4969 20.8794 41.8381 21.7177 42.7779 21.8496ZM29.2827 17.7997C28.5897 14.8114 27.038 8.02666 28.3125 5.25821C28.3531 5.19398 28.3869 5.12637 28.4342 5.02834C29.8473 2.21238 32.2238 0.609986 34.9079 0.609986C35.2189 0.609986 35.5367 0.62689 35.8545 0.667456C41.6825 1.46864 44.1334 7.28983 43.5451 12.6274C43.464 13.3711 43.3254 14.0472 43.1192 14.7436C41.6994 22.3058 31.493 27.2213 29.2827 17.7997ZM30.1549 21.3256C32.0074 23.8576 32.3826 21.9307 33.5997 25.5613C33.5828 26.3929 33.4036 26.6803 33.6808 26.8426L36.7165 28.6072C35.8511 30.027 34.3163 33.2453 34.2994 34.4521C33.1906 35.7266 32.4874 37.2445 32.217 38.982L30.1347 39.2525C29.5465 37.6603 29.4653 36.5244 30.5843 34.2561C30.9122 33.5935 30.8852 33.5935 30.8615 30.5342C30.8615 29.8817 30.591 29.7837 29.4653 29.138C28.894 28.3706 27.8326 27.4072 26.6797 26.8832C27.535 24.9529 28.7182 23.0429 30.1549 21.3256ZM12.4988 32.241C10.6868 31.2539 9.67271 30.1417 10.0242 27.417C10.0242 26.8221 10.6124 25.9161 11.2885 26.315C12.0086 26.7477 11.5826 24.9696 12.3737 24.503C12.7658 24.2833 13.0193 24.7566 13.3202 24.5842C13.638 24.3949 13.3439 23.4652 14.0301 23.0731C14.5102 22.7959 14.8956 23.3266 15.1896 23.2353C15.6156 23.1136 15.4026 22.0014 17.0996 22.7283C18.2354 23.2184 19.2969 24.1988 19.8006 24.8985C19.8648 24.9898 19.9561 25.0202 20.3956 25.2738C21.1799 25.7234 21.048 25.5273 21.0582 26.6699C21.0649 28.0019 21.0649 28.5461 21.0108 28.8571C20.6424 29.2492 20.4632 29.8611 20.399 30.2769C19.4186 30.0639 18.6208 31.1761 18.6276 32.0246C18.2354 34.9792 19.3949 36.311 21.3692 37.3962C22.3664 38.4407 23.4989 41.561 25.0337 44.3837C17.2889 47.771 14.6926 33.4811 12.4988 32.241ZM21.7717 36.9433C21.4539 36.6154 18.7191 36.0035 19.2329 32.0686C19.2329 31.4398 19.8279 30.5744 20.4972 30.9734C20.6932 31.0883 20.9535 30.9497 20.9535 30.7029C20.9535 30.5001 21.1158 29.4217 21.5823 29.1512C21.9914 28.9214 22.2178 29.4115 22.5289 29.2324C22.8467 29.0431 22.5526 28.1134 23.2388 27.7213C23.7188 27.4441 24.111 27.9748 24.3983 27.8835C24.8242 27.7618 24.5943 26.6429 26.3082 27.3765C28.0391 28.11 28.9687 29.5467 29.1073 29.6313L29.5637 29.8916C30.3818 30.3581 30.2499 30.162 30.2567 31.2709C30.2804 34.6412 30.2804 32.8969 29.3744 35.6215C28.7118 37.6803 29.4961 39.6883 29.7834 39.8505C29.9457 39.9418 29.8646 39.8844 32.454 39.5632C33.1876 39.6443 32.4067 37.9136 34.4452 35.2598C35.2531 37.6194 39.09 41.6186 41.6795 42.1189C28.1401 60.1064 25.0775 40.2529 21.7717 36.9433ZM29.2663 58.0238C23.4518 59.2171 21.5182 65.1094 16.7412 67.5027C13.6954 69.3315 10.6259 72.1475 7.59728 75.839C7.28627 73.8648 7.22205 72.1002 9.04079 70.2477C9.68646 69.5952 7.87447 69.9772 7.15445 67.4892C13.0737 61.6274 13.8411 58.8824 18.2153 55.7014C20.0273 54.3695 22.3226 51.9693 25.7504 50.2149C27.7719 49.167 33.7826 57.0942 29.2663 58.0238ZM48.6402 61.854C46.9567 63.1859 45.3408 63.9194 44.5025 61.9858C44.4045 61.7661 44.1915 61.7897 43.5729 61.7255C41.5548 61.5058 41.9739 61.2117 41.4906 60.7283C40.7874 59.6026 41.0578 59.6668 40.1688 59.5857C39.2291 59.5113 38.962 59.0955 35.5882 57.2193C33.5633 56.0429 32.5998 52.4832 33.5701 49.9445C33.898 49.8465 34.2326 49.7248 34.5571 49.576C37.4474 51.2426 37.0486 51.0635 37.2108 51.104C37.5388 51.3474 37.5861 50.9012 38.2554 50.9012C38.7523 50.8268 41.717 51.6111 43.0726 53.7746C45.8244 58.274 45.8075 58.6391 46.8352 59.0076C48.6336 60.8567 48.5929 61.7627 48.6402 61.854Z" fill="#B40200"/>
</svg>
