<svg width="59" height="91" viewBox="0 0 59 91" fill="none" xmlns="http://www.w3.org/2000/svg">
<path d="M20.3374 59.5171C20.3006 59.5171 20.2638 59.515 20.2269 59.512C15.6329 59.0956 11.3346 58.3098 7.44966 57.1771C6.81019 56.9909 6.42957 56.3156 6.60044 55.672C7.90906 50.7384 9.73643 46.0011 11.5045 41.4194C12.5696 38.6599 13.5743 36.0539 14.445 33.4735C14.5739 33.0898 14.886 32.8054 15.2789 32.7112C15.6708 32.6181 16.077 32.7307 16.3655 33.0131C18.2635 34.8773 20.6781 35.6365 23.721 36.2043C26.5726 36.7364 29.5459 36.2002 32.0956 34.6952C32.4056 34.512 32.777 34.4813 33.1126 34.6123C33.4482 34.7422 33.6999 35.0154 33.8043 35.3592C35.7002 41.5995 37.8489 48.6716 39.3099 55.6383C39.4389 56.2522 39.0879 56.8661 38.4945 57.0656C34.5747 58.3845 30.4913 59.1334 26.3587 59.292C25.7428 59.3155 25.2005 58.8745 25.0941 58.2678C24.6142 55.5278 24.0781 52.9136 23.5205 50.2953C22.6528 53.0834 21.995 55.8296 21.5601 58.4786C21.4598 59.0792 20.935 59.5171 20.3374 59.5171ZM8.15872 55.7846C11.7961 56.8241 15.8069 57.5547 20.0888 57.9578C20.627 54.7747 21.4772 51.4638 22.615 48.1109C22.7695 47.6566 23.1972 47.3701 23.674 47.3977C24.1538 47.4254 24.5436 47.7599 24.6449 48.2285C25.3223 51.3727 25.9791 54.4678 26.5593 57.747C30.3685 57.5772 34.1317 56.8865 37.7527 55.6946C36.3417 49.0399 34.2995 42.2696 32.4701 36.2463C29.6943 37.7636 26.5061 38.2844 23.4397 37.7125C20.7416 37.2091 17.9535 36.4662 15.7158 34.5028C14.8789 36.9359 13.9334 39.3874 12.9369 41.9709C11.218 46.4267 9.44074 51.031 8.15872 55.7846Z" fill="#B40200"/>
<path d="M16.44 33.898L14.9861 33.4069C15.6358 31.4834 15.9724 30.1788 16.4912 27.5923L17.9962 27.8941C17.4632 30.5554 17.1143 31.9018 16.44 33.898Z" fill="#B40200"/>
<path d="M3.2168 84.1445C2.81572 84.1445 2.41566 84.0964 2.01765 83.987C1.46412 83.8345 1.02927 83.6063 0.689583 83.2902C0.219951 82.8533 -0.0358392 82.2435 0.00406417 81.6593C0.0541992 80.9369 0.52383 80.2381 1.26153 79.7889C2.39213 79.1003 3.1728 78.8497 3.86139 78.6287C4.79861 78.3268 5.54552 78.0874 7.04752 76.614C7.69518 74.3887 7.62151 72.0426 7.54273 69.5634C7.46497 67.1078 7.38414 64.5694 8.08091 62.1772C8.25485 61.5797 8.34694 60.9136 8.3541 60.1974C8.36638 58.987 8.61398 57.751 9.06929 56.6245L10.4915 57.2006C10.1068 58.15 9.89805 59.1916 9.88782 60.2127C9.87963 61.0702 9.76709 61.8754 9.55324 62.6069C8.924 64.7658 8.99767 67.0731 9.07543 69.5153C9.15626 72.0763 9.24118 74.7243 8.45846 77.2505C8.42163 77.3691 8.35614 77.4776 8.26815 77.5656C6.41111 79.4226 5.40023 79.747 4.33 80.0908C3.69257 80.2954 3.03365 80.5072 2.05858 81.1006C1.7547 81.2858 1.54904 81.5467 1.53369 81.7657C1.52551 81.8864 1.60531 82.0481 1.73321 82.1668C1.88566 82.309 2.11792 82.4236 2.42282 82.5075C3.6455 82.8441 5.05747 82.3028 6.51752 81.6685C6.71806 81.5815 6.89814 81.4925 7.08742 81.3984C7.73918 81.0761 8.4779 80.7098 10.2377 80.3506C10.8169 80.232 11.3243 79.6109 11.3223 79.0195V78.9796C11.3162 78.6235 11.2568 78.2552 11.1934 77.8654C11.1555 77.6321 11.1156 77.3906 11.087 77.144C10.8056 74.7284 11.6108 72.3536 12.4355 70.3502C12.6452 69.8397 12.8652 69.3465 13.077 68.8687C13.7114 67.4404 14.311 66.0908 14.5504 64.5479C14.623 64.0834 14.6404 63.5697 14.6599 63.0275C14.6824 62.4054 14.7049 61.7628 14.8144 61.153C15.018 60.0224 15.3085 59.3246 15.9245 58.0017L17.316 58.6494C16.7338 59.8997 16.4975 60.4624 16.3245 61.4252C16.2345 61.9276 16.214 62.4893 16.1925 63.0827C16.1721 63.6465 16.1516 64.2287 16.0657 64.7842C15.7945 66.5287 15.1551 67.9683 14.4777 69.4928C14.27 69.9604 14.0552 70.4444 13.8526 70.9355C13.1026 72.7577 12.369 74.8992 12.6094 76.9681C12.634 77.1799 12.6688 77.3937 12.7056 77.6198C12.7752 78.0465 12.8468 78.4875 12.855 78.955C12.855 78.9755 12.856 78.997 12.856 79.0185C12.8591 80.3425 11.8431 81.5897 10.5437 81.8547C8.98027 82.1739 8.39093 82.4655 7.76782 82.7735C7.56933 82.8717 7.36367 82.973 7.12835 83.0753C5.86372 83.6268 4.53463 84.1445 3.2168 84.1445Z" fill="#B40200"/>
<path d="M44.2835 90.2593C43.423 90.2593 42.5759 89.9391 41.9487 89.537C41.169 89.0366 40.7188 88.6038 40.197 88.1025C40.0456 87.9572 39.8849 87.8027 39.7028 87.6329C39.2352 87.198 38.5988 86.8041 38.0412 86.6036C36.8584 86.1789 36.1944 84.943 36.4973 83.7285C36.5822 83.3857 36.7019 83.0409 36.8523 82.7033C37.0099 82.3503 37.0845 81.9901 37.0764 81.6341C37.018 79.1672 35.9345 76.7004 34.8878 74.3143C34.7262 73.945 34.5645 73.5787 34.408 73.2134C33.1945 70.3854 32.1038 67.6116 32.0731 64.7621C32.0639 63.8607 31.8265 62.9971 31.3876 62.2635L31.2801 62.0835C30.6151 60.9754 29.9275 59.8305 29.6267 58.4952L31.1236 58.1576C31.3712 59.2524 31.9667 60.2438 32.5959 61.2946L32.7044 61.4757C33.2835 62.4416 33.5956 63.5732 33.6078 64.7457C33.6355 67.3118 34.6699 69.9291 35.8189 72.6087C35.9734 72.9699 36.133 73.3331 36.2936 73.6984C37.4007 76.2205 38.5456 78.8285 38.6111 81.5982C38.6244 82.1835 38.5047 82.7657 38.254 83.3284C38.1405 83.5842 38.0504 83.8441 37.986 84.0999C37.8744 84.547 38.121 85.0023 38.5599 85.1599C39.3109 85.429 40.1285 85.9334 40.7475 86.5094C40.9368 86.6854 41.1046 86.8461 41.2611 86.9975C41.7624 87.4794 42.1247 87.8273 42.7774 88.2468C43.4967 88.7082 44.5158 88.9476 45.1737 88.4422C45.3497 88.3071 45.4632 88.1322 45.4847 87.9623C45.542 87.507 45.0335 87.0763 44.3081 86.5166L44.1669 86.4071C42.669 85.2438 41.8412 84.1889 41.2171 82.646C41.1885 82.5754 41.17 82.5007 41.1639 82.4239C41.1076 81.7732 41.0544 81.1552 41.0033 80.5679C40.3658 73.1582 40.151 70.6617 38.6367 66.039C38.2479 64.8521 38.2244 63.9047 38.2049 63.1445C38.1906 62.5756 38.1783 62.0845 38.0218 61.6077C37.7169 60.6776 37.4856 59.9676 37.2544 59.2585C37.0242 58.5505 36.7929 57.8414 36.488 56.9124L37.946 56.4346C38.251 57.3646 38.4822 58.0747 38.7134 58.7838C38.9436 59.4918 39.1749 60.2008 39.4798 61.1299C39.7059 61.8215 39.7223 62.4743 39.7386 63.1066C39.757 63.8351 39.7755 64.5882 40.0947 65.5612C41.6652 70.3537 41.9016 73.0988 42.5319 80.437C42.5789 80.9884 42.6291 81.5665 42.6812 82.1743C43.1959 83.4 43.863 84.2288 45.1072 85.1957L45.2443 85.3021C46.0608 85.9313 47.1791 86.7939 47.0062 88.1557C46.9325 88.7369 46.6133 89.272 46.1078 89.6597C45.5461 90.0895 44.9117 90.2593 44.2835 90.2593Z" fill="#B40200"/>
<path d="M10.0485 32.4556C9.47756 32.4556 8.93119 32.2622 8.48509 31.8969C7.97248 31.4774 7.65837 30.8819 7.60005 30.2199C7.48853 28.9533 7.46704 27.0676 7.9909 25.277C8.59457 23.2164 9.61159 21.655 10.689 20.0026C11.1893 19.2363 11.706 18.4433 12.1797 17.5921C12.414 17.1705 12.6442 16.6794 12.8867 16.1586C13.4362 14.982 14.004 13.7644 14.8246 12.8957C16.4934 11.1277 18.8385 9.96949 21.2572 9.71882C21.7146 9.67175 22.173 9.65436 22.617 9.63799C23.5839 9.60218 24.4976 9.56944 25.2905 9.23486L25.887 10.6489C24.8342 11.0929 23.7353 11.1328 22.6733 11.1717C22.2354 11.1881 21.822 11.2024 21.4158 11.2454C19.3572 11.4582 17.3621 12.4435 15.9409 13.9486C15.2901 14.6382 14.7755 15.7412 14.2772 16.8073C14.0224 17.3526 13.782 17.8683 13.5211 18.3379C13.0218 19.2353 12.4897 20.0507 11.9751 20.8396C10.9611 22.3948 10.0035 23.863 9.46425 25.7068C9.10717 26.9254 8.98848 28.4795 9.12968 30.0849C9.15117 30.3315 9.26781 30.5525 9.45812 30.709C9.65456 30.8696 9.90422 30.9433 10.1621 30.9136C12.4683 30.6568 13.8117 29.6142 16.036 27.8861L16.2632 27.7101C16.4617 27.5566 16.7338 27.3254 16.9978 27.1024C17.2741 26.8691 17.5585 26.6276 17.7836 26.4537C18.5581 25.8531 19.171 25.454 20.5789 25.3937C20.5983 25.3927 20.6178 25.3927 20.6372 25.3937C20.7129 25.3957 22.5086 25.4592 23.4928 25.7221C24.4567 25.9799 25.1135 25.9482 25.444 25.628C25.7694 25.3128 25.8144 24.6744 25.8154 24.0912C25.8175 23.1734 25.8042 22.0848 25.6916 20.9726C25.6476 20.5367 25.4901 20.4682 25.3499 20.4088C25.0296 20.2707 24.6347 20.2942 24.293 20.4712C23.3772 20.9439 22.8411 21.3911 22.219 21.9088C21.9622 22.1226 21.6962 22.3447 21.3933 22.5749C20.9881 22.8828 20.5328 23.11 20.0376 23.2502C19.0472 23.5295 17.9698 23.7321 16.9282 23.9265C15.0487 24.2784 13.1057 24.6417 11.4789 25.4776L10.777 24.1127C12.6033 23.1744 14.6578 22.7897 16.6458 22.4173C17.7007 22.2198 18.6963 22.0336 19.6202 21.7727C19.9292 21.6857 20.2126 21.5445 20.4633 21.3532C20.7385 21.1435 20.9912 20.9327 21.2357 20.7291C21.8691 20.2021 22.5229 19.6568 23.587 19.1063C24.3441 18.7155 25.2077 18.6756 25.9556 18.9989C26.7025 19.3212 27.1271 19.9331 27.2161 20.8181C27.3369 22.006 27.3502 23.1939 27.3481 24.0943C27.3461 24.9977 27.2458 26.0168 26.5102 26.7299C25.3877 27.8186 23.6617 27.3571 23.0938 27.2047C22.4318 27.0277 21.1079 26.9468 20.6126 26.9284C19.612 26.9765 19.2938 27.2231 18.7208 27.6671C18.5223 27.8206 18.2502 28.0519 17.9862 28.2749C17.7099 28.5082 17.4255 28.7497 17.2004 28.9236L16.9743 29.0996C14.7049 30.8615 13.0648 32.1353 10.3288 32.4402C10.2367 32.4494 10.1416 32.4556 10.0485 32.4556Z" fill="#B40200"/>
<path d="M18.3349 23.4445L17.0171 22.6587C17.7292 21.4637 18.1978 20.1029 18.3718 18.7236L19.8942 18.916C19.6937 20.5039 19.1545 22.0704 18.3349 23.4445Z" fill="#B40200"/>
<path d="M33.4623 35.6446L31.9377 35.4717C32.3122 32.1638 32.8576 28.6728 34.2992 25.547C35.1781 23.6409 36.367 21.9107 37.516 20.2368L38.7807 21.1055C37.6675 22.7262 36.5164 24.4011 35.6928 26.1886C34.4169 28.9562 33.8787 31.9705 33.4623 35.6446Z" fill="#B40200"/>
<path d="M32.2296 16.4399C31.6853 16.4399 31.1134 16.2834 30.569 15.9795C29.9531 15.6357 29.4487 15.1548 29.0036 14.7313C27.4525 13.2538 25.5207 11.4142 24.8097 8.98108C24.3441 7.38801 24.4423 5.66807 25.0859 4.13844C25.7295 2.60881 26.8908 1.33702 28.3549 0.55635C30.039 -0.340964 32.3831 0.0120269 33.5475 0.468358C35.0546 1.05872 36.4 2.43488 37.06 4.05864C37.8673 6.0446 37.3424 8.26895 36.795 9.98582C36.4031 11.2136 35.9386 12.4465 35.4147 13.6518C34.942 14.7364 34.2268 16.0256 32.8732 16.3632C32.6665 16.4144 32.4496 16.4399 32.2296 16.4399ZM30.876 1.53756C30.2324 1.53756 29.5837 1.63988 29.0773 1.90999C27.9395 2.51673 27.0002 3.54501 26.5009 4.7329C26.0006 5.92079 25.9218 7.3123 26.283 8.5493C26.8785 10.5864 28.5698 12.1979 30.0626 13.6191C30.4606 13.9976 30.8709 14.3895 31.318 14.6392C31.7344 14.8714 32.1662 14.9563 32.5028 14.8724C33.2057 14.6975 33.6764 13.8002 34.0089 13.0379C34.5123 11.8807 34.9584 10.6969 35.3349 9.51824C35.8322 7.95689 36.2578 6.15612 35.6398 4.6357C35.1405 3.40688 34.1 2.33154 32.9888 1.89567C32.4854 1.69922 31.6843 1.53756 30.876 1.53756Z" fill="#B40200"/>
<path d="M52.566 27.2721C49.5108 24.9628 47.2599 23.6419 45.8745 23.3462C45.6699 23.3022 45.4919 23.1774 45.3814 22.9983C44.6222 21.7685 43.4547 20.4373 42.3252 19.1502C41.2723 17.949 40.1847 16.7079 38.9508 15.6909C37.6115 14.5858 36.2527 13.8829 34.9124 13.6026L35.2265 12.1006C36.8124 12.4321 38.3942 13.2424 39.9269 14.5071C41.256 15.6029 42.3866 16.8921 43.4793 18.1383C44.572 19.3835 45.6996 20.6696 46.5171 21.925C48.1326 22.3742 50.4204 23.7268 53.491 26.0473L52.566 27.2721Z" fill="#B40200"/>
<path d="M43.2776 27.7816C40.4414 26.65 37.9715 24.6109 36.3242 22.0397L37.6165 21.2119C39.0919 23.5161 41.304 25.3424 43.8455 26.3564L43.2776 27.7816Z" fill="#B40200"/>
<path d="M53.3987 31.0813C52.6876 31.0015 52.0461 30.9524 51.4261 30.9043C50.1973 30.8102 49.037 30.7211 47.5759 30.4132C44.6609 29.7982 43.7329 29.1199 42.0549 27.1053L43.2346 26.123C44.6896 27.8706 45.3372 28.373 47.8921 28.9112C49.2549 29.1977 50.3661 29.2836 51.5437 29.3736C52.1771 29.4227 52.8319 29.4729 53.5696 29.5558L53.3987 31.0813Z" fill="#B40200"/>
<path d="M55.1719 32.6203C54.7513 32.6203 54.338 32.5169 53.9666 32.3113C52.6047 31.5552 52.6508 29.9375 52.6661 29.4055C52.6692 29.2878 52.6743 29.1702 52.6794 29.0525C52.7019 28.5491 52.7224 28.0733 52.5853 27.6907C52.5618 27.6252 52.53 27.5505 52.4973 27.4717C52.3418 27.1034 52.129 26.5979 52.3213 26.0239C52.5965 25.2023 53.4928 24.8964 54.2561 24.9578C54.8209 25.0028 55.3877 24.9926 56.016 24.9762C56.8693 24.9537 57.518 25.3579 57.9313 26.1795C58.2945 26.9018 58.449 27.7715 58.3887 28.765C58.2894 30.4072 57.6152 31.6534 56.4907 32.2744C56.0712 32.5047 55.618 32.6203 55.1719 32.6203ZM53.7855 26.5335C53.8039 26.6194 53.8694 26.776 53.9113 26.8752C53.9512 26.9693 53.9921 27.0665 54.03 27.1719C54.2694 27.839 54.2398 28.5194 54.2131 29.12C54.208 29.2305 54.2029 29.34 54.1998 29.4495C54.1692 30.5218 54.4413 30.8195 54.7114 30.9689C55.0133 31.1357 55.401 31.1213 55.7499 30.929C56.6237 30.4471 56.8191 29.3073 56.857 28.6709C56.9 27.9516 56.8007 27.3448 56.5603 26.867C56.3843 26.5181 56.2554 26.5028 56.0569 26.5089C55.4082 26.5263 54.7728 26.5376 54.1333 26.4864C53.9768 26.4741 53.8479 26.5048 53.7855 26.5335Z" fill="#B40200"/>
</svg>
